<?xml version="1.0" encoding="UTF-8"?>
<!DOCTYPE svg PUBLIC "-//W3C//DTD SVG 1.1//EN" "http://www.w3.org/Graphics/SVG/1.1/DTD/svg11.dtd">
<svg xmlns="http://www.w3.org/2000/svg" version="1.1" width="56px" height="50px" style="shape-rendering:geometricPrecision; text-rendering:geometricPrecision; image-rendering:optimizeQuality; fill-rule:evenodd; clip-rule:evenodd" xmlns:xlink="http://www.w3.org/1999/xlink">
<g><path style="opacity:0.851" fill="#73645b" d="M 48.5,19.5 C 46.4525,17.4504 44.7859,15.117 43.5,12.5C 44.4584,12.9528 45.2917,13.6195 46,14.5C 47.3747,12.0632 47.8747,9.39653 47.5,6.5C 43.7779,5.67986 41.4446,7.01319 40.5,10.5C 37.5979,9.42222 34.5979,8.75556 31.5,8.5C 25.5291,7.06764 19.8625,8.06764 14.5,11.5C 15.7489,9.17149 15.0823,7.33816 12.5,6C 11.2411,5.01809 9.90775,4.68475 8.5,5C 7.39768,7.40086 7.23101,9.90086 8,12.5C 8.41691,13.756 9.25025,14.4226 10.5,14.5C 9.97439,16.2303 8.97439,17.5637 7.5,18.5C 2.94878,13.2502 2.28211,7.41686 5.5,1C 11.5545,0.274363 16.3878,2.44103 20,7.5C 20.2362,5.23601 20.7362,3.06934 21.5,1C 22.1667,0.333333 22.8333,0.333333 23.5,1C 26.795,8.3925 29.795,8.22583 32.5,0.5C 34.6999,2.25292 35.8666,4.58625 36,7.5C 39.7078,2.82138 44.3745,1.15471 50,2.5C 52.3183,8.46086 51.8183,14.1275 48.5,19.5 Z"/></g>
<g><path style="opacity:1" fill="#e56875" d="M 14.5,11.5 C 12.5695,11.7706 11.2362,12.7706 10.5,14.5C 9.25025,14.4226 8.41691,13.756 8,12.5C 7.23101,9.90086 7.39768,7.40086 8.5,5C 9.90775,4.68475 11.2411,5.01809 12.5,6C 15.0823,7.33816 15.7489,9.17149 14.5,11.5 Z"/></g>
<g><path style="opacity:1" fill="#e46975" d="M 43.5,12.5 C 41.9731,12.573 40.9731,11.9063 40.5,10.5C 41.4446,7.01319 43.7779,5.67986 47.5,6.5C 47.8747,9.39653 47.3747,12.0632 46,14.5C 45.2917,13.6195 44.4584,12.9528 43.5,12.5 Z"/></g>
<g><path style="opacity:1" fill="#f3dfc3" d="M 31.5,8.5 C 38.9073,10.9083 43.574,15.9083 45.5,23.5C 42.0287,20.5255 39.0287,20.8589 36.5,24.5C 39.1778,26.785 42.1778,27.1183 45.5,25.5C 45.5,27.8333 45.5,30.1667 45.5,32.5C 36.1801,26.0548 26.1801,24.8881 15.5,29C 12.6424,30.6941 10.309,32.8607 8.5,35.5C 5.04527,29.9949 4.71193,24.3282 7.5,18.5C 8.97439,17.5637 9.97439,16.2303 10.5,14.5C 11.2362,12.7706 12.5695,11.7706 14.5,11.5C 19.8625,8.06764 25.5291,7.06764 31.5,8.5 Z"/></g>
<g><path style="opacity:1" fill="#d3c0a4" d="M 31.5,8.5 C 34.5979,8.75556 37.5979,9.42222 40.5,10.5C 40.9731,11.9063 41.9731,12.573 43.5,12.5C 44.7859,15.117 46.4525,17.4504 48.5,19.5C 50.0815,24.6716 49.7482,29.6716 47.5,34.5C 46.1667,34.5 45.5,33.8333 45.5,32.5C 45.5,30.1667 45.5,27.8333 45.5,25.5C 45.5,24.8333 45.5,24.1667 45.5,23.5C 43.574,15.9083 38.9073,10.9083 31.5,8.5 Z"/></g>
<g><path style="opacity:1" fill="#494037" d="M 19.5,17.5 C 20.5,17.5 21.5,17.5 22.5,17.5C 22.5,18.5 22.5,19.5 22.5,20.5C 21.5,20.5 20.5,20.5 19.5,20.5C 19.5,19.5 19.5,18.5 19.5,17.5 Z"/></g>
<g><path style="opacity:1" fill="#544940" d="M 33.5,17.5 C 34.5,17.5 35.5,17.5 36.5,17.5C 36.5,18.5 36.5,19.5 36.5,20.5C 33.4331,20.8795 32.4331,19.8795 33.5,17.5 Z"/></g>
<g><path style="opacity:1" fill="#f59e8f" d="M 12.5,21.5 C 16.5601,20.8482 18.5601,22.5149 18.5,26.5C 16.1432,26.6633 13.8098,26.4966 11.5,26C 10.4186,24.2894 10.752,22.7894 12.5,21.5 Z"/></g>
<g><path style="opacity:1" fill="#f69f90" d="M 45.5,23.5 C 45.5,24.1667 45.5,24.8333 45.5,25.5C 42.1778,27.1183 39.1778,26.785 36.5,24.5C 39.0287,20.8589 42.0287,20.5255 45.5,23.5 Z"/></g>
<g><path style="opacity:1" fill="#82746a" d="M 45.5,32.5 C 45.5,33.8333 46.1667,34.5 47.5,34.5C 46.8848,38.5181 45.2181,42.0181 42.5,45C 38.8426,46.8224 35.1759,48.3224 31.5,49.5C 29.1667,49.5 26.8333,49.5 24.5,49.5C 19.4601,48.3954 14.9601,46.0621 11,42.5C 10.0093,40.1924 9.17599,37.8591 8.5,35.5C 10.309,32.8607 12.6424,30.6941 15.5,29C 26.1801,24.8881 36.1801,26.0548 45.5,32.5 Z"/></g>
<g><path style="opacity:1" fill="#423831" d="M 22.5,36.5 C 24.9118,36.6941 25.9118,38.0274 25.5,40.5C 24.1667,40.5 22.8333,40.5 21.5,40.5C 21.4326,39.0413 21.7659,37.7079 22.5,36.5 Z"/></g>
<g><path style="opacity:1" fill="#3d342d" d="M 30.5,36.5 C 31.5,36.5 32.5,36.5 33.5,36.5C 33.5,37.8333 33.5,39.1667 33.5,40.5C 32.5,40.5 31.5,40.5 30.5,40.5C 30.5,39.1667 30.5,37.8333 30.5,36.5 Z"/></g>
</svg>
